HIERARCHY
ROOT simHips
{
  OFFSET -149.05 98.0996 4.60761
  CHANNELS 6 Xposition Yposition Zposition Zrotation Xrotation Yrotation
  JOINT simSpine
  {
    OFFSET -0.000355721 21.3001 -0.016921
    CHANNELS 3 Zrotation Xrotation Yrotation
    JOINT simLeftArm
    {
      OFFSET 13.5181 21.3012 0
      CHANNELS 3 Zrotation Xrotation Yrotation
      JOINT simLeftForeArm
      {
        OFFSET 24.5783 0 0
        CHANNELS 3 Zrotation Xrotation Yrotation
        JOINT simLeftHand
        {
          OFFSET 24.5783 0 0
          CHANNELS 3 Zrotation Xrotation Yrotation
          End Site
          {
            OFFSET 7.32568 1.52588e-05 0.0169305
          }
        }
      }
    }
    JOINT simHead
    {
      OFFSET 0 27.4458 -0.00489235
      CHANNELS 3 Zrotation Xrotation Yrotation
      End Site
      {
        OFFSET 0 0 0
      }
    }
    JOINT simRightArm
    {
      OFFSET -13.5174 21.3012 0
      CHANNELS 3 Zrotation Xrotation Yrotation
      JOINT simRightForeArm
      {
        OFFSET -24.5783 0 0
        CHANNELS 3 Zrotation Xrotation Yrotation
        JOINT simRightHand
        {
          OFFSET -24.5783 0 0
          CHANNELS 3 Zrotation Xrotation Yrotation
          End Site
          {
            OFFSET -7.32568 1.52588e-05 0.0169305
          }
        }
      }
    }
  }
  JOINT simRightUpLeg
  {
    OFFSET -8.44614 -9.41038 0.835684
    CHANNELS 3 Zrotation Xrotation Yrotation
    JOINT simRightLeg
    {
      OFFSET 0 -40.9639 0
      CHANNELS 3 Zrotation Xrotation Yrotation
      JOINT simRightFoot
      {
        OFFSET 0 -40.9639 0
        CHANNELS 3 Zrotation Xrotation Yrotation
        End Site
        {
          OFFSET 0.50614 -9.67405 14.6709
        }
      }
    }
  }
  JOINT simLeftUpLeg
  {
    OFFSET 8.44614 -9.41038 0.835684
    CHANNELS 3 Zrotation Xrotation Yrotation
    JOINT simLeftLeg
    {
      OFFSET 0 -40.9639 0
      CHANNELS 3 Zrotation Xrotation Yrotation
      JOINT simLeftFoot
      {
        OFFSET 0 -40.9639 0
        CHANNELS 3 Zrotation Xrotation Yrotation
        End Site
        {
          OFFSET -0.50614 -9.67405 14.6709
        }
      }
    }
  }
}
MOTION
Frames:	17
Frame Time:	0.0333333
193.624 85.0414 44.8367 -13.8574 -5.79315 74.8936 -11.0991 36.6255 9.17806 48.3545 34.9162 -123.378 28.5213 -9.7774 -45.7094 0.659932 -4.37271 -0.440227 8.56905 -39.8234 25.1136 58.7685 47.6705 22.5678 -10.2806 -3.45404 23.7035 2.43914 -52.0988 3.16473 -21.6273 -32.8233 -7.41674 2.27827 50.4198 -3.08296 -0.829098 -15.0312 -10.1266 28.335 -53.4263 29.7564 -16.516 80.6658 17.5386 3.83827 -25.7166 15.1331 
194.831 86.2844 44.3464 -14.1977 -6.03212 76.4585 -10.263 36.2262 7.69247 49.0585 35.9875 -122.985 28.6279 -9.74943 -45.7821 0.534608 -9.99184 -0.377856 9.54978 -41.2881 24.068 57.2206 49.9802 23.687 -11.9581 -4.01278 25.8594 2.59629 -53.958 3.3936 -20.0768 -34.8618 -8.24105 2.51671 50.4226 -3.34204 -0.624549 -14.9924 -9.45336 23.7765 -52.7725 24.5396 -14.0565 78.0049 15.0335 4.39271 -26.2213 16.391 
196.345 87.7413 43.8105 -14.0968 -5.85676 78.3624 -8.37774 36.3012 5.79072 48.3522 37.8863 -122.341 28.6666 -9.73422 -45.8584 0.345922 -18.0742 -0.422316 8.50108 -41.0696 22.7935 54.8517 53.134 23.9069 -14.893 -4.89345 29.5641 2.83458 -57.0351 3.67258 -18.8448 -37.3077 -10.4204 2.95272 52.0955 -3.78272 -0.566169 -15.6124 -9.01527 18.5169 -50.8351 19.3258 -12.0343 74.804 12.9379 4.75916 -26.4479 17.3036 
197.654 88.997 43.4766 -14.2848 -4.5619 79.7296 -6.57493 36.4277 4.35863 45.5982 40.8949 -120.18 29.0424 -10.0615 -46.7815 -0.0112019 -31.3163 -0.571465 3.7905 -39.2888 23.4759 52.5333 55.1829 23.5353 -18.4936 -6.81787 35.089 3.61119 -62.2717 4.49613 -17.1775 -42.9977 -12.0311 4.00125 55.8588 -4.80121 -0.343477 -16.04 -8.16327 15.288 -48.8997 18.0832 -10.169 71.5182 11.0121 3.98591 -25.8634 15.4437 
199.019 89.7083 43.2607 -14.2879 -1.38944 81.6863 -4.80128 36.7972 2.75311 41.6468 43.7644 -117.039 30.0207 -11.0945 -49.1562 -0.376504 -35.0956 -0.561699 -3.79343 -34.561 25.0726 51.4477 55.5236 22.8341 -21.5774 -8.71638 40.077 3.76132 -64.8307 4.76927 -15.6992 -49.1204 -10.4429 5.17248 59.0282 -5.94595 0.142904 -17.1756 -5.88349 12.0548 -47.0586 20.0127 -9.07418 68.8113 9.86013 2.41411 -23.9787 11.6205 
200.448 89.891 43.214 -14.402 3.38559 86.6172 -1.52205 37.459 -0.566097 39.0728 43.6574 -114.616 30.9392 -12.0974 -50.9922 -0.558148 -34.0569 -0.636404 -13.8506 -29.2239 24.5922 48.9835 55.4606 23.4792 -23.8556 -10.3054 43.8856 4.08328 -66.7493 5.10461 -17.8381 -53.5281 -6.0737 6.6298 61.596 -7.34926 0.667217 -16.8888 -4.07622 9.04002 -46.0794 25.6982 -8.56498 68.8995 9.30404 -0.0525848 -17.8141 3.93593 
201.931 89.053 43.2281 -14.7101 5.59274 92.687 4.94735 37.7623 -4.18851 36.6565 43.3924 -112.814 32.0643 -13.3544 -53.039 -0.65777 -35.7564 -0.791877 -22.2297 -24.5435 22.6838 47.5774 55.0243 22.3772 -24.9847 -11.4188 46.3095 4.80599 -69.6016 5.81603 -20.9473 -52.7943 -3.30563 7.86895 64.8674 -8.53556 -0.782975 -16.4503 -9.95417 17.2817 -47.8963 37.8188 -11.4063 76.8862 11.9281 -0.0976392 -2.60221 -10.4036 
203.428 87.1968 43.087 -14.4546 7.5321 96.3782 8.50353 38.4135 -5.98451 34.6542 43.3739 -113.578 32.4995 -13.9708 -54.1219 -0.455419 -32.0317 -0.457464 -25.9611 -22.448 21.8515 46.4758 54.634 19.0514 -26.4875 -12.7941 49.1686 6.59954 -74.7762 7.60562 -28.9813 -52.6606 -10.7244 9.07848 70.687 -9.73813 -1.26936 -18.7619 -10.0755 27.2456 -48.0946 45.1512 -12.6908 80.9366 13.1691 1.46111 1.59934 -16.6673 
204.617 85.5733 42.7621 -13.9521 9.35745 98.6752 8.09619 41.1096 -6.83459 31.7394 43.5121 -113.347 33.0198 -14.6066 -55.5979 -0.383262 -25.2475 -0.278039 -25.9093 -23.3979 21.6643 43.1618 55.6757 18.3071 -28.0887 -14.643 52.5861 7.56476 -76.9275 8.6763 -35.1284 -51.8706 -15.8836 10.9397 75.5107 -11.6093 -1.69372 -21.0096 -9.89036 32.441 -47.4711 45.7072 -5.08246 74.2725 5.87997 -1.28142 -3.39354 -0.914671 
205.615 84.3601 41.4829 -13.9203 9.26301 100.94 8.26414 42.9554 -7.69324 31.0515 42.9072 -112.376 33.5451 -15.2197 -56.4809 -0.299989 -23.1404 -0.184397 -25.6525 -23.4727 22.2575 41.6057 56.3235 17.5512 -29.0022 -15.8068 54.6729 8.87962 -78.6426 9.99029 -38.0482 -50.6977 -18.4226 12.4558 78.254 -13.1774 -2.36787 -22.5905 -10.7759 35.6094 -48.063 45.7662 -2.03871 63.2904 2.86732 -3.17513 -3.44283 11.7642 
206.556 83.0292 38.8422 -13.92 7.82729 102.391 7.74174 44.0497 -6.78829 31.9249 41.7915 -112.755 33.4763 -15.1051 -56.192 -0.231084 -21.3604 -0.117975 -25.4626 -24.3619 23.3278 42.7233 55.9699 15.688 -29.2738 -16.4166 55.7149 9.59495 -79.4142 10.686 -38.8484 -49.9388 -18.4504 14.1513 79.9752 -14.8991 -3.26358 -23.3277 -12.6694 38.6696 -49.5867 46.5878 -1.2339 56.7426 2.0211 -4.4155 -1.43313 15.336 
207.296 81.2205 34.6687 -13.396 5.67919 103.275 6.68169 45.3621 -5.40549 31.9342 40.0172 -113.691 32.7422 -14.1557 -54.6325 -0.219846 -20.7818 -0.121824 -25.0356 -26.0694 24.697 43.1699 55.6273 15.1623 -28.9085 -16.0973 55.082 10.7029 -79.7829 11.6702 -39.1803 -48.475 -17.7784 15.6127 81.3581 -16.3821 -3.87884 -23.9472 -13.7963 42.258 -52.5242 47.7468 -1.51152 60.8397 2.41804 -5.24193 3.71817 12.5017 
207.924 79.7751 29.4763 -12.4678 4.87327 103.412 2.17913 48.0507 -2.36704 32.7805 37.3066 -114.749 31.6819 -12.8763 -52.4583 -0.189776 -20.7147 -0.11858 -23.9946 -29.4716 25.526 43.8472 54.5787 15.7263 -28.3026 -15.2726 53.5702 11.0987 -80.6497 12.1151 -40.1362 -45.8568 -15.5345 13.3758 81.0049 -14.1383 -4.25101 -23.7238 -14.7767 43.9481 -55.9852 48.3995 -3.01669 68.6569 4.03644 -5.25855 3.69829 13.0996 
209.02 78.7231 23.5471 -12.0626 2.83831 103.474 -1.07298 48.8171 0.347266 33.7312 35.1717 -116.863 30.1916 -11.3629 -49.6397 -0.174658 -20.5141 -0.176776 -22.192 -31.0459 28.9872 44.6519 54.6941 16.2514 -26.7845 -13.3037 50.0336 9.86394 -80.5386 10.9952 -39.7494 -41.8693 -13.2041 8.11607 77.7445 -8.85779 -4.57377 -23.2962 -15.7773 45.9767 -58.6492 50.0103 -6.35326 76.6026 7.34767 -3.26762 -2.28304 11.1296 
210.304 78.4931 17.6801 -11.158 0.976421 102.396 -6.45016 49.0654 4.97521 36.4395 32.5319 -120.347 28.4996 -9.78448 -46.4216 -0.182617 -21.0557 -0.329968 -19.9476 -31.4746 32.1472 47.12 53.0984 17.4575 -23.1984 -10.271 43.704 7.24946 -77.6061 8.44006 -38.6542 -36.8721 -10.6779 4.16014 71.6898 -4.85407 -4.18732 -21.82 -15.6774 46.5187 -58.1352 51.7861 -11.0185 81.8057 12.0008 -1.75552 -7.91376 8.78557 
212.083 79.1626 12.3443 -9.74802 -1.70827 101.747 -10.8494 48.6101 8.6284 38.7039 31.2545 -122.908 27.5713 -8.9732 -44.7753 -0.123094 -20.1518 -0.492467 -17.0778 -31.579 35.2143 50.146 51.5917 19.2495 -19.0554 -7.38674 36.6863 4.71065 -71.4257 5.85326 -35.3842 -30.62 -8.06678 2.15477 63.9295 -2.81591 -4.19974 -19.965 -17.1004 44.9643 -56.1155 50.4693 -16.4749 84.4167 17.489 -0.761916 -13.0537 6.60439 
213.744 80.3515 7.63199 -9.34226 -5.32769 101.344 -12.1855 46.6883 10.5694 41.8335 30.6962 -124.316 28.1504 -9.43315 -45.6365 0.0521369 -19.532 -0.638568 -15.2162 -32.2045 35.8684 54.4876 48.7268 19.8085 -14.8627 -5.25425 30.4121 3.30354 -64.0872 4.30139 -31.0367 -26.4677 -6.64717 1.5805 56.5603 -2.26055 -4.19246 -18.8704 -18.0657 42.9984 -55.5044 46.9893 -19.685 85.0851 20.7418 -0.0921758 -16.6415 7.00042 
